{
  "accessors": [
    {
      "bufferView": 2,
      "componentType": 5126,
      "count": 4411,
      "max": [
        1.816517949104309,
        2.5978310108184814,
        2.1842150688171387
      ],
      "min": [
        -1.816517949104309,
        -3.033086061477661,
        -2.1528239250183105
      ],
      "type": "VEC3"
    },
    {
      "bufferView": 2,
      "byteOffset": 52932,
      "componentType": 5126,
      "count": 4411,
      "max": [
        0.9999282360076904,
        0.9999455213546753,
        0.9999712109565735
      ],
      "min": [
        -0.9999282360076904,
        -0.9999847412109375,
        -0.9999760985374451
      ],
      "type": "VEC3"
    },
    {
      "bufferView": 1,
      "componentType": 5126,
      "count": 4411,
      "max": [
        0.9958860278129578,
        1.0
      ],
      "min": [
        0.0,
        0.0
      ],
      "type": "VEC2"
    },
    {
      "bufferView": 0,
      "componentType": 5125,
      "count": 21906,
      "type": "SCALAR"
    },
    {
      "bufferView": 2,
      "byteOffset": 105864,
      "componentType": 5126,
      "count": 4975,
      "max": [
        1.9067250490188599,
        1.9117720127105713,
        1.0001109838485718
      ],
      "min": [
        -1.906723976135254,
        -1.8291629552841187,
        -1.4828879833221436
      ],
      "type": "VEC3"
    },
    {
      "bufferView": 2,
      "byteOffset": 165564,
      "componentType": 5126,
      "count": 4975,
      "max": [
        0.9998172521591187,
        0.9992671012878418,
        0.9995447397232056
      ],
      "min": [
        -0.9998171329498291,
        -0.9999836683273315,
        -0.9995448589324951
      ],
      "type": "VEC3"
    },
    {
      "bufferView": 3,
      "componentType": 5126,
      "count": 4975,
      "max": [
        0.9998889565467834,
        0.9999898672103882,
        0.997365415096283,
        1.0
      ],
      "min": [
        -0.9996175169944763,
        -0.9992154240608215,
        -0.9994493126869202,
        -1.0
      ],
      "type": "VEC4"
    },
    {
      "bufferView": 1,
      "byteOffset": 35288,
      "componentType": 5126,
      "count": 4975,
      "max": [
        1.0,
        0.9678859710693359
      ],
      "min": [
        0.0,
        -0.0
      ],
      "type": "VEC2"
    },
    {
      "bufferView": 0,
      "byteOffset": 87624,
      "componentType": 5125,
      "count": 24060,
      "type": "SCALAR"
    },
    {
      "bufferView": 2,
      "byteOffset": 225264,
      "componentType": 5126,
      "count": 6519,
      "max": [
        1.862056016921997,
        2.3878819942474365,
        1.0119580030441284
      ],
      "min": [
        -1.862056016921997,
        -0.4555720090866089,
        -0.6742960214614868
      ],
      "type": "VEC3"
    },
    {
      "bufferView": 2,
      "byteOffset": 303492,
      "componentType": 5126,
      "count": 6519,
      "max": [
        0.9998895525932312,
        0.9983863830566406,
        0.9991461038589478
      ],
      "min": [
        -0.9998894929885864,
        -0.9991656541824341,
        -0.9994813799858093
      ],
      "type": "VEC3"
    },
    {
      "bufferView": 3,
      "byteOffset": 79600,
      "componentType": 5126,
      "count": 6519,
      "max": [
        0.9985384345054626,
        0.9994813799858093,
        0.9797850847244263,
        1.0
      ],
      "min": [
        -0.9995970726013184,
        -0.9971228241920471,
        -0.9984815716743469,
        -1.0
      ],
      "type": "VEC4"
    },
    {
      "bufferView": 1,
      "byteOffset": 75088,
      "componentType": 5126,
      "count": 6519,
      "max": [
        0.7160859704017639,
        1.0
      ],
      "min": [
        0.0,
        0.0
      ],
      "type": "VEC2"
    },
    {
      "bufferView": 0,
      "byteOffset": 183864,
      "componentType": 5125,
      "count": 36192,
      "type": "SCALAR"
    }
  ],
  "asset": {
    "extras": {
      "author": "Maubian (https://sketchfab.com/Fabianmml)",
      "license": "CC-BY-4.0 (http://creativecommons.org/licenses/by/4.0/)",
      "source": "https://sketchfab.com/3d-models/helmet-redbull-max-verstappen-87eee96938ae415281a8aa8233eefba8",
      "title": "Helmet Redbull - Max Verstappen"
    },
    "generator": "Sketchfab-16.93.0",
    "version": "2.0"
  },
  "bufferViews": [
    {
      "buffer": 0,
      "byteLength": 328632,
      "name": "floatBufferViews",
      "target": 34963
    },
    {
      "buffer": 0,
      "byteLength": 127240,
      "byteOffset": 328632,
      "byteStride": 8,
      "name": "floatBufferViews",
      "target": 34962
    },
    {
      "buffer": 0,
      "byteLength": 381720,
      "byteOffset": 455872,
      "byteStride": 12,
      "name": "floatBufferViews",
      "target": 34962
    },
    {
      "buffer": 0,
      "byteLength": 183904,
      "byteOffset": 837592,
      "byteStride": 16,
      "name": "floatBufferViews",
      "target": 34962
    }
  ],
  "buffers": [
    {
      "byteLength": 1021496,
      "uri": "scene.bin"
    }
  ],
  "extensionsUsed": [
    "KHR_materials_specular",
    "KHR_materials_transmission"
  ],
  "images": [
    {
      "uri": "textures/aiStandardSurface6SG_baseColor.png"
    },
    {
      "uri": "textures/aiStandardSurface6SG_metallicRoughness.png"
    },
    {
      "uri": "textures/aiStandardSurface7SG_baseColor.png"
    },
    {
      "uri": "textures/aiStandardSurface7SG_metallicRoughness.png"
    },
    {
      "uri": "textures/aiStandardSurface7SG_normal.png"
    },
    {
      "uri": "textures/aiStandardSurface8SG_baseColor.png"
    },
    {
      "uri": "textures/aiStandardSurface8SG_metallicRoughness.png"
    },
    {
      "uri": "textures/aiStandardSurface8SG_normal.png"
    }
  ],
  "materials": [
    {
      "doubleSided": true,
      "extensions": {
        "KHR_materials_specular": {
          "specularColorFactor": [
            1.0,
            1.0,
            1.0
          ],
          "specularFactor": 0.49828723287537635
        }
      },
      "name": "aiStandardSurface6SG",
      "pbrMetallicRoughness": {
        "baseColorTexture": {
          "index": 0
        },
        "metallicRoughnessTexture": {
          "index": 1
        },
        "roughnessFactor": 0.42514415282027523
      }
    },
    {
      "alphaMode": "BLEND",
      "doubleSided": true,
      "extensions": {
        "KHR_materials_specular": {
          "specularColorFactor": [
            1.0,
            1.0,
            1.0
          ],
          "specularFactor": 0.9980982799185673
        },
        "KHR_materials_transmission": {
          "transmissionFactor": 0.14209262352037655
        }
      },
      "name": "aiStandardSurface7SG",
      "normalTexture": {
        "index": 4
      },
      "pbrMetallicRoughness": {
        "baseColorFactor": [
          1.0,
          1.0,
          1.0,
          0.8579073764796235
        ],
        "baseColorTexture": {
          "index": 2
        },
        "metallicRoughnessTexture": {
          "index": 3
        },
        "roughnessFactor": 0.1569528592849045
      }
    },
    {
      "doubleSided": true,
      "name": "aiStandardSurface8SG",
      "normalTexture": {
        "index": 7
      },
      "pbrMetallicRoughness": {
        "baseColorTexture": {
          "index": 5
        },
        "metallicRoughnessTexture": {
          "index": 6
        },
        "roughnessFactor": 0.08380977922980336
      }
    }
  ],
  "meshes": [
    {
      "name": "Object_0",
      "primitives": [
        {
          "attributes": {
            "NORMAL": 1,
            "POSITION": 0,
            "TEXCOORD_0": 2
          },
          "indices": 3,
          "material": 0,
          "mode": 4
        }
      ]
    },
    {
      "name": "Object_1",
      "primitives": [
        {
          "attributes": {
            "NORMAL": 5,
            "POSITION": 4,
            "TANGENT": 6,
            "TEXCOORD_0": 7
          },
          "indices": 8,
          "material": 2,
          "mode": 4
        }
      ]
    },
    {
      "name": "Object_2",
      "primitives": [
        {
          "attributes": {
            "NORMAL": 10,
            "POSITION": 9,
            "TANGENT": 11,
            "TEXCOORD_0": 12
          },
          "indices": 13,
          "material": 1,
          "mode": 4
        }
      ]
    }
  ],
  "nodes": [
    {
      "children": [
        1
      ],
      "matrix": [
        1.0,
        0.0,
        0.0,
        0.0,
        0.0,
        3.828568672208042e-16,
        -1.0,
        0.0,
        0.0,
        1.0,
        3.828568672208042e-16,
        0.0,
        0.0,
        0.0,
        0.0,
        1.0
      ],
      "name": "Sketchfab_model"
    },
    {
      "children": [
        2,
        3,
        4
      ],
      "name": "Helmet_MV1.obj.cleaner.materialmerger.gles"
    },
    {
      "mesh": 0,
      "name": "Object_2"
    },
    {
      "mesh": 1,
      "name": "Object_3"
    },
    {
      "mesh": 2,
      "name": "Object_4"
    }
  ],
  "samplers": [
    {
      "magFilter": 9729,
      "minFilter": 9987,
      "wrapS": 10497,
      "wrapT": 10497
    }
  ],
  "scene": 0,
  "scenes": [
    {
      "name": "Sketchfab_Scene",
      "nodes": [
        0
      ]
    }
  ],
  "textures": [
    {
      "sampler": 0,
      "source": 0
    },
    {
      "sampler": 0,
      "source": 1
    },
    {
      "sampler": 0,
      "source": 2
    },
    {
      "sampler": 0,
      "source": 3
    },
    {
      "sampler": 0,
      "source": 4
    },
    {
      "sampler": 0,
      "source": 5
    },
    {
      "sampler": 0,
      "source": 6
    },
    {
      "sampler": 0,
      "source": 7
    }
  ]
}
